<?xml version="1.0" standalone="no"?>
<!DOCTYPE svg PUBLIC "-//W3C//DTD SVG 20010904//EN"
 "http://www.w3.org/TR/2001/REC-SVG-20010904/DTD/svg10.dtd">
<svg version="1.0" xmlns="http://www.w3.org/2000/svg"
 width="279.000000pt" height="279.000000pt" viewBox="0 0 279.000000 279.000000"
 preserveAspectRatio="xMidYMid meet">
<metadata>
Created by potrace 1.16, written by Peter Selinger 2001-2019
</metadata><g><rect x="0" y="0" width="279" height="279" fill="#ffffff" />
<g transform="translate(0.000000,279.000000) scale(0.050000,-0.050000)"
fill="#000000" stroke="none">
<path d="M540 4410 l0 -630 630 0 630 0 0 630 0 630 -630 0 -630 0 0 -630z
m1080 0 l0 -450 -450 0 -450 0 0 450 0 450 450 0 450 0 0 -450z"/>
<path d="M900 4410 l0 -270 270 0 270 0 0 270 0 270 -270 0 -270 0 0 -270z"/>
<path d="M1980 4950 l0 -90 180 0 180 0 0 -90 0 -90 180 0 180 0 0 -90 0 -90
90 0 90 0 0 -90 0 -90 -90 0 -90 0 0 -90 0 -90 90 0 90 0 0 -90 0 -90 -90 0
-90 0 0 -180 0 -180 -90 0 -90 0 0 270 0 270 -180 0 -180 0 0 270 0 270 -90 0
-90 0 0 -270 0 -270 90 0 90 0 0 -90 0 -90 -90 0 -90 0 0 -90 0 -90 90 0 90 0
0 90 0 90 90 0 90 0 0 -180 0 -180 -180 0 -180 0 0 -180 0 -180 -270 0 -270 0
0 90 0 90 -90 0 -90 0 0 90 0 90 -360 0 -360 0 0 -180 0 -180 90 0 90 0 0 -90
0 -90 -90 0 -90 0 0 -180 0 -180 90 0 90 0 0 -180 0 -180 -90 0 -90 0 0 -90 0
-90 90 0 90 0 0 90 0 90 180 0 180 0 0 -180 0 -180 90 0 90 0 0 360 0 360 270
0 270 0 0 -90 0 -90 -90 0 -90 0 0 -90 0 -90 90 0 90 0 0 90 0 90 90 0 90 0 0
-180 0 -180 90 0 90 0 0 180 0 180 90 0 90 0 0 -180 0 -180 90 0 90 0 0 -90 0
-90 -90 0 -90 0 0 -90 0 -90 -90 0 -90 0 0 90 0 90 -90 0 -90 0 0 -90 0 -90
90 0 90 0 0 -90 0 -90 90 0 90 0 0 90 0 90 360 0 360 0 0 180 0 180 90 0 90 0
0 90 0 90 -90 0 -90 0 0 -90 0 -90 -90 0 -90 0 0 180 0 180 270 0 270 0 0 -90
0 -90 270 0 270 0 0 -90 0 -90 -270 0 -270 0 0 -90 0 -90 -90 0 -90 0 0 -90 0
-90 90 0 90 0 0 -90 0 -90 -90 0 -90 0 0 -90 0 -90 -90 0 -90 0 0 -90 0 -90
-90 0 -90 0 0 90 0 90 -90 0 -90 0 0 90 0 90 -90 0 -90 0 0 -90 0 -90 -90 0
-90 0 0 -90 0 -90 -180 0 -180 0 0 -360 0 -360 180 0 180 0 0 90 0 90 90 0 90
0 0 90 0 90 180 0 180 0 0 -90 0 -90 -90 0 -90 0 0 -90 0 -90 270 0 270 0 0
90 0 90 -90 0 -90 0 0 270 0 270 90 0 90 0 0 90 0 90 90 0 90 0 0 -180 0 -180
-90 0 -90 0 0 -90 0 -90 180 0 180 0 0 -90 0 -90 90 0 90 0 0 -90 0 -90 630 0
630 0 0 90 0 90 -180 0 -180 0 0 90 0 90 90 0 90 0 0 90 0 90 -90 0 -90 0 0
90 0 90 -90 0 -90 0 0 90 0 90 -90 0 -90 0 0 270 0 270 90 0 90 0 0 -180 0
-180 90 0 90 0 0 -90 0 -90 90 0 90 0 0 90 0 90 90 0 90 0 0 360 0 360 -90 0
-90 0 0 90 0 90 90 0 90 0 0 180 0 180 -180 0 -180 0 0 90 0 90 -180 0 -180 0
0 90 0 90 -90 0 -90 0 0 90 0 90 270 0 270 0 0 -90 0 -90 90 0 90 0 0 90 0 90
90 0 90 0 0 90 0 90 -90 0 -90 0 0 -90 0 -90 -90 0 -90 0 0 90 0 90 -270 0
-270 0 0 -90 0 -90 -90 0 -90 0 0 -180 0 -180 90 0 90 0 0 -180 0 -180 -90 0
-90 0 0 90 0 90 -90 0 -90 0 0 90 0 90 -90 0 -90 0 0 180 0 180 90 0 90 0 0
90 0 90 -90 0 -90 0 0 540 0 540 -270 0 -270 0 0 180 0 180 -90 0 -90 0 0
-180 0 -180 -90 0 -90 0 0 180 0 180 -90 0 -90 0 0 -90 0 -90 -90 0 -90 0 0
90 0 90 -180 0 -180 0 0 -90z m1260 -720 l0 -90 90 0 90 0 0 -540 0 -540 90 0
90 0 0 -270 0 -270 -90 0 -90 0 0 90 0 90 -90 0 -90 0 0 90 0 90 -90 0 -90 0
0 270 0 270 -180 0 -180 0 0 90 0 90 90 0 90 0 0 180 0 180 90 0 90 0 0 90 0
90 -90 0 -90 0 0 90 0 90 180 0 180 0 0 -90z m-720 -900 l0 -270 -90 0 -90 0
0 -90 0 -90 90 0 90 0 0 -90 0 -90 90 0 90 0 0 -270 0 -270 90 0 90 0 0 -90 0
-90 -90 0 -90 0 0 90 0 90 -90 0 -90 0 0 180 0 180 -90 0 -90 0 0 180 0 180
-90 0 -90 0 0 270 0 270 90 0 90 0 0 90 0 90 90 0 90 0 0 -270z m-1080 -180
l0 -90 270 0 270 0 0 -180 0 -180 90 0 90 0 0 -90 0 -90 -90 0 -90 0 0 90 0
90 -90 0 -90 0 0 90 0 90 -540 0 -540 0 0 90 0 90 270 0 270 0 0 90 0 90 90 0
90 0 0 -90z m1440 0 l0 -90 -90 0 -90 0 0 90 0 90 90 0 90 0 0 -90z m1620
-360 l0 -90 180 0 180 0 0 -90 0 -90 -180 0 -180 0 0 -90 0 -90 180 0 180 0 0
-90 0 -90 -270 0 -270 0 0 360 0 360 90 0 90 0 0 -90z m-360 -360 l0 -90 -90
0 -90 0 0 90 0 90 90 0 90 0 0 -90z m0 -720 l0 -270 -270 0 -270 0 0 270 0
270 270 0 270 0 0 -270z m720 180 l0 -90 -90 0 -90 0 0 90 0 90 90 0 90 0 0
-90z m-1980 -720 l0 -90 -90 0 -90 0 0 90 0 90 90 0 90 0 0 -90z m1260 -180
l0 -270 -180 0 -180 0 0 90 0 90 -90 0 -90 0 0 90 0 90 90 0 90 0 0 -90 0 -90
90 0 90 0 0 180 0 180 90 0 90 0 0 -270z m-1620 0 l0 -90 -90 0 -90 0 0 -90 0
-90 -90 0 -90 0 0 90 0 90 90 0 90 0 0 90 0 90 90 0 90 0 0 -90z m1980 -90 l0
-180 -90 0 -90 0 0 180 0 180 90 0 90 0 0 -180z"/>
<path d="M3060 3780 l0 -180 90 0 90 0 0 180 0 180 -90 0 -90 0 0 -180z"/>
<path d="M3780 1710 l0 -90 90 0 90 0 0 90 0 90 -90 0 -90 0 0 -90z"/>
<path d="M3420 4950 l0 -90 90 0 90 0 0 90 0 90 -90 0 -90 0 0 -90z"/>
<path d="M3780 4410 l0 -630 630 0 630 0 0 630 0 630 -630 0 -630 0 0 -630z
m1080 0 l0 -450 -450 0 -450 0 0 450 0 450 450 0 450 0 0 -450z"/>
<path d="M4140 4410 l0 -270 270 0 270 0 0 270 0 270 -270 0 -270 0 0 -270z"/>
<path d="M2340 4410 l0 -90 90 0 90 0 0 90 0 90 -90 0 -90 0 0 -90z"/>
<path d="M1620 3510 l0 -90 90 0 90 0 0 90 0 90 -90 0 -90 0 0 -90z"/>
<path d="M1620 2070 l0 -90 90 0 90 0 0 90 0 90 -90 0 -90 0 0 -90z"/>
<path d="M540 1170 l0 -630 630 0 630 0 0 630 0 630 -630 0 -630 0 0 -630z
m1080 0 l0 -450 -450 0 -450 0 0 450 0 450 450 0 450 0 0 -450z"/>
<path d="M900 1170 l0 -270 270 0 270 0 0 270 0 270 -270 0 -270 0 0 -270z"/>
</g>
</g></svg>
